<svg height="512" viewBox="0 0 128 128" width="512" xmlns="http://www.w3.org/2000/svg"><g><path d="m67.333 37.471h.015a79.662 79.662 0 0 0 7.98-.382 1.75 1.75 0 1 0 -.4-3.477c-2.475.283-5.368.34-7.612.359a1.75 1.75 0 0 0 .014 3.5z"/><path d="m113.4 95.818c-1.4-3.485-3.856-5.627-6.744-5.875-2.374-.208-4.792.863-7.068 3.058 1.5-13.515 3-28.009 4.48-43.2 1.991-20.488-2.117-31.876-13.263-36.783a11.708 11.708 0 0 0 -11.232-8.268h-31.146a11.71 11.71 0 0 0 -11.24 8.268c-11.143 4.908-15.25 16.295-13.259 36.782 1.472 15.194 2.98 29.688 4.481 43.2-2.277-2.194-4.7-3.265-7.069-3.061-2.888.248-5.347 2.39-6.744 5.875-2.358 5.879-.1 15.307 2.206 22.182a7.729 7.729 0 0 0 7.338 5.25h79.72a7.73 7.73 0 0 0 7.34-5.246c2.306-6.875 4.562-16.3 2.2-22.182zm-12.812-46.357c-1.68 17.292-3.4 33.686-5.1 48.749a4.2 4.2 0 0 1 -4.109 1.141c.867-6.481 2.8-21.343 5.211-42.816 1.243-11.075-.268-18.735-4.49-22.768a11.985 11.985 0 0 0 -1.62-1.276c1.11-3.832 1.427-8.886.959-15.273 5.88 3.403 11.219 10.954 9.149 32.243zm-54.157 1.959 13.914 25a7.785 7.785 0 0 0 -2.092 1.65l-14.572-26.65zm35.138.01h2.751l-14.56 26.655a7.793 7.793 0 0 0 -2.1-1.66zm-21.819 31.822a4.25 4.25 0 1 1 4.25 4.248 4.255 4.255 0 0 1 -4.25-4.248zm3.01 26.368v-18.727a7.126 7.126 0 0 0 2.5 0v18.73zm6-20.265a7.646 7.646 0 0 0 2.873-7.4l16.675-30.526h1.592a1.75 1.75 0 0 0 0-3.5h-12a1.748 1.748 0 0 0 -.318 3.468l-13.415 24.113c-.056 0-.111-.008-.167-.008s-.1.007-.157.008l-13.425-24.123a1.748 1.748 0 0 0 -.318-3.468h-12a1.75 1.75 0 0 0 0 3.5h1.591l16.681 30.509a7.647 7.647 0 0 0 2.888 7.442v4.412a68.206 68.206 0 0 0 -19.289 4.2c-.916-6.894-2.777-21.365-5.082-41.841-1.1-9.792.087-16.656 3.432-19.851.164-.157.357-.3.538-.442a12.38 12.38 0 0 0 1.547 2.283c4.624 5.349 13.839 5.349 23.594 5.349s18.966 0 23.591-5.341a12.371 12.371 0 0 0 1.549-2.287c.182.147.376.286.541.444 3.343 3.193 4.529 10.057 3.43 19.849-2.308 20.5-4.167 34.961-5.083 41.844a68.286 68.286 0 0 0 -19.268-4.207zm-20.333-81.105h31.146a8.257 8.257 0 0 1 8.244 7.591c.912 9.882-.079 16.8-2.867 20-3.58 4.139-12.017 4.139-20.95 4.139s-17.37 0-20.95-4.139c-2.788-3.2-3.779-10.118-2.859-20.094a8.235 8.235 0 0 1 8.236-7.497zm-11.868 8.969c-.472 6.373-.156 11.433.958 15.273a11.943 11.943 0 0 0 -1.617 1.273c-4.223 4.034-5.734 11.7-4.49 22.77 2.415 21.457 4.343 36.328 5.211 42.817a4.2 4.2 0 0 1 -4.109-1.143c-1.7-15.062-3.421-31.456-5.1-48.748-2.07-21.287 3.268-28.838 9.147-32.242zm71.323 99.662a4.232 4.232 0 0 1 -4.022 2.869h-79.72a4.231 4.231 0 0 1 -4.021-2.866c-2.954-8.8-3.783-16-2.274-19.763.521-1.3 1.708-3.512 3.8-3.69 2.206-.2 4.864 1.937 7.27 5.838a7.8 7.8 0 0 0 9.861 3.021 63.179 63.179 0 0 1 20.489-5v12.33h-15.165a1.75 1.75 0 0 0 0 3.5h39.8a1.75 1.75 0 0 0 0-3.5h-15.14v-12.329a63.423 63.423 0 0 1 20.473 5 7.8 7.8 0 0 0 9.856-3.023c2.407-3.9 5.057-6.036 7.271-5.838 2.087.178 3.274 2.388 3.8 3.69 1.504 3.762.675 10.965-2.278 19.761z"/></g></svg>