<svg id="Capa_1" enable-background="new 0 0 511.939 511.939" height="512" viewBox="0 0 511.939 511.939" width="512" xmlns="http://www.w3.org/2000/svg"><g><path d="m114.412 458.918c-3.05 2.804-3.248 7.548-.444 10.598 1.479 1.608 3.497 2.423 5.522 2.423 1.814 0 3.634-.654 5.074-1.979l40.053-36.829h82.723c4.143 0 7.5-3.358 7.5-7.5s-3.357-7.5-7.5-7.5h-78.146v-186.644h204.298v186.645h-89.526c-4.143 0-7.5 3.358-7.5 7.5s3.357 7.5 7.5 7.5h94.103l40.053 36.829c1.44 1.325 3.26 1.979 5.074 1.979 2.025 0 4.044-.815 5.522-2.423 2.804-3.049 2.605-7.794-.444-10.598l-39.781-36.579v-195.06l39.781-36.579c3.05-2.804 3.248-7.548.444-10.598-2.803-3.048-7.549-3.248-10.597-.444l-40.053 36.829h-213.45l-40.053-36.829c-3.05-2.804-7.794-2.604-10.597.444-2.804 3.049-2.605 7.794.444 10.598l39.781 36.579v195.06zm156.929-54.855c4.143 0 7.5-3.358 7.5-7.5v-8.617l21.857-21.857c25.993-25.994 25.993-68.29 0-94.284l-24.054-24.053c-2.868-2.895-7.739-2.895-10.607 0l-24.053 24.053c-25.903 25.885-26.206 68.088 0 94.284l21.856 21.857v8.617c.001 4.143 3.359 7.5 7.501 7.5zm-18.749-48.58c-20.146-19.951-19.992-53.248 0-73.071l18.749-18.75 18.75 18.75c20.146 20.146 20.146 52.925 0 73.071l-11.25 11.25v-41.529c0-4.142-3.357-7.5-7.5-7.5s-7.5 3.358-7.5 7.5v41.529zm136.287-202.804c20.301 0 36.816-16.515 36.816-36.815s-16.516-36.816-36.816-36.816h-127.224c-20.3 0-36.815 16.516-36.815 36.816s16.516 36.815 36.815 36.815zm-149.04-36.815c0-12.029 9.786-21.816 21.815-21.816h127.225c12.029 0 21.816 9.787 21.816 21.816s-9.787 21.815-21.816 21.815h-127.224c-12.03 0-21.816-9.786-21.816-21.815zm193.357-76.816h-228.181c-9.909 0-19.255 3.83-26.315 10.784l-17.046 16.79-20.14-20.139 3.891-3.89c5.652-5.653 5.653-14.852-.001-20.506l-15.556-15.557c-8.634-8.717-23.207-8.696-31.82 0l-50.205 50.204c-8.771 8.772-8.772 23.046 0 31.819l15.557 15.557c5.654 5.654 14.853 5.653 20.507 0l3.886-3.886 19.732 19.733-24.332 23.966c-7.108 7.001-11.186 16.739-11.186 26.716v57.76c0 4.142 3.357 7.5 7.5 7.5s7.5-3.358 7.5-7.5v-57.76c0-5.986 2.446-11.829 6.711-16.03 28.052-27.634 67.648-66.63 95.526-94.091 4.236-4.173 9.845-6.471 15.79-6.471h228.181c12.406 0 22.5 10.093 22.5 22.5v397.892c0 12.407-10.094 22.5-22.5 22.5h-323.707c-12.406 0-22.5-10.093-22.5-22.5v-211.5c0-4.142-3.357-7.5-7.5-7.5s-7.5 3.358-7.5 7.5v211.5c0 20.678 16.822 37.5 37.5 37.5h323.708c20.678 0 37.5-16.822 37.5-37.5v-397.891c0-20.678-16.823-37.5-37.5-37.5zm-359.564 54.102-15.202-15.203c-2.925-2.924-2.925-7.682 0-10.606l50.205-50.205c2.865-2.902 7.734-2.901 10.606 0l15.202 15.203-8.787 8.787c-.018.018-.038.032-.056.05s-.033.038-.051.056zm44.56 16.28-19.813-19.812 32.529-32.529 20.059 20.059z"/></g></svg>