<svg height="480pt" viewBox="-12 0 480 480" width="480pt" xmlns="http://www.w3.org/2000/svg"><path d="m448 112h-48v-24c0-4.417969-3.582031-8-8-8h-88v-24c-.035156-30.914062-25.085938-55.9648438-56-56-30.914062.0351562-55.964844 25.085938-56 56v24h-8c-26.996094.035156-51.703125 15.167969-64 39.199219-12.296875-24.03125-37.003906-39.164063-64-39.199219h-48c-4.417969 0-8 3.582031-8 8v384c0 4.417969 3.582031 8 8 8h440c4.417969 0 8-3.582031 8-8v-352c0-4.417969-3.582031-8-8-8zm-240 152v-152h32v152zm68.6875 16-28.6875 28.6875-28.6875-28.6875zm11.3125-16h-32v-152h32zm0-168h-80v-16h80zm-40-80c22.074219.039062 39.960938 17.925781 40 40v8h-80v-8c.027344-22.082031 17.917969-39.972656 40-40zm-64 80h8v176c0 2.121094.84375 4.15625 2.34375 5.65625l48 48c3.125 3.121094 8.1875 3.121094 11.3125 0l48-48c1.5-1.5 2.34375-3.535156 2.34375-5.65625v-176h80v304h-200c-21.769531.003906-42.363281 9.878906-56 26.847656v-274.847656c.035156-30.914062 25.085938-55.964844 56-56zm-128 0c30.914062.035156 55.964844 25.085938 56 56v274.847656c-13.636719-16.96875-34.230469-26.84375-56-26.847656h-40v-304zm-40 368v-16h40v-16h-40v-16h40c27.824219.035156 51.417969 20.464844 55.433594 48zm168-48h200v16h-200v16h200v16h-255.433594c4.015625-27.535156 27.609375-47.964844 55.433594-48zm256 48h-40v-336h40zm0 0"/><path d="m176 344h72v16h-72zm0 0"/></svg>